<?xml version="1.0" standalone="no"?>
<!DOCTYPE svg PUBLIC "-//W3C//DTD SVG 20010904//EN"
 "http://www.w3.org/TR/2001/REC-SVG-20010904/DTD/svg10.dtd">
<svg version="1.0" xmlns="http://www.w3.org/2000/svg"
 width="800.000000pt" height="800.000000pt" viewBox="0 0 800.000000 800.000000"
 preserveAspectRatio="xMidYMid meet">
<metadata>
Created by potrace 1.11, written by Peter Selinger 2001-2013
</metadata>
<g transform="translate(0.000000,800.000000) scale(0.100000,-0.100000)"
fill="#000000" stroke="none">
<path d="M170 7992 c0 -4 6 -16 14 -27 12 -19 24 -39 92 -162 15 -27 59 -104
99 -173 40 -69 83 -143 96 -165 70 -123 154 -269 204 -355 21 -36 51 -90 68
-120 17 -30 48 -84 69 -119 21 -34 38 -65 38 -66 0 -2 22 -40 50 -85 28 -45
50 -83 50 -85 0 -2 29 -54 65 -116 36 -61 80 -137 97 -168 17 -31 36 -63 43
-71 7 -8 18 -30 26 -47 8 -18 17 -33 21 -33 5 0 8 -4 8 -9 0 -14 130 -235 140
-239 5 -2 6 -10 3 -18 -3 -8 -1 -14 3 -14 5 0 15 -13 22 -28 6 -16 20 -37 30
-48 9 -11 18 -25 19 -31 2 -10 37 -66 60 -98 5 -6 9 -17 11 -25 2 -7 11 -25
21 -39 10 -14 35 -57 56 -96 40 -75 233 -408 270 -465 12 -19 25 -45 29 -58 4
-12 12 -22 17 -22 5 0 9 -4 9 -10 0 -5 78 -143 173 -307 96 -164 185 -318 198
-343 13 -25 26 -47 29 -50 3 -3 17 -26 30 -52 14 -27 28 -48 32 -48 5 0 8 -5
8 -11 0 -7 14 -35 32 -63 17 -28 39 -64 48 -81 10 -16 59 -101 109 -189 50
-87 91 -162 91 -167 0 -5 5 -9 10 -9 6 0 10 -5 10 -11 0 -6 27 -56 60 -111 33
-56 60 -105 60 -109 0 -5 5 -9 10 -9 6 0 10 -4 10 -10 0 -5 18 -39 40 -75 22
-36 40 -68 40 -70 0 -3 12 -24 27 -48 41 -65 141 -245 148 -267 3 -11 10 -20
14 -20 4 0 18 -22 31 -50 13 -27 27 -47 32 -44 4 3 8 -3 8 -13 0 -11 4 -23 9
-28 5 -6 18 -26 29 -45 143 -255 256 -453 304 -532 32 -54 58 -99 58 -102 0
-2 23 -43 50 -91 28 -48 50 -88 50 -89 0 -2 24 -43 54 -92 30 -49 87 -147 127
-219 107 -191 198 -323 298 -430 37 -40 151 -144 151 -138 0 2 7 -2 15 -9 34
-31 43 -36 49 -31 3 4 6 2 6 -4 0 -8 40 -33 60 -38 3 0 16 -7 30 -15 14 -8 27
-15 30 -15 13 -3 66 -27 120 -54 33 -17 64 -31 68 -32 4 0 41 -17 82 -36 41
-20 82 -36 90 -38 8 -1 32 -9 53 -19 119 -53 146 -64 151 -58 3 3 6 0 6 -7 0
-7 4 -9 10 -6 6 3 10 2 10 -4 0 -6 7 -8 15 -5 8 4 15 2 15 -3 0 -6 19 -16 43
-23 23 -8 44 -17 47 -21 3 -4 17 -9 30 -11 14 -2 30 -7 36 -10 36 -23 337
-126 340 -117 0 2 8 -2 17 -10 10 -7 17 -11 17 -7 0 4 14 0 30 -9 17 -9 30
-13 30 -9 0 4 7 1 15 -6 8 -7 15 -9 15 -5 0 4 6 2 13 -4 8 -6 17 -8 20 -4 4 3
13 1 21 -6 8 -6 25 -14 37 -17 32 -7 41 -10 59 -18 22 -9 184 -57 242 -71 9
-2 26 -9 37 -15 12 -6 21 -8 21 -4 0 3 7 1 15 -6 8 -7 15 -10 15 -7 0 3 16 -1
35 -9 19 -8 35 -11 35 -8 0 4 7 0 17 -7 9 -8 18 -13 20 -11 4 4 65 -8 78 -16
6 -4 15 -7 20 -8 6 -1 44 -12 85 -24 41 -12 89 -25 105 -30 17 -4 50 -15 74
-24 25 -9 58 -19 74 -22 27 -4 164 -39 195 -49 7 -3 14 -5 17 -5 3 0 23 -7 45
-15 40 -14 141 -40 195 -50 28 -5 60 -10 125 -20 43 -7 164 -18 180 -17 68 4
130 11 138 16 5 3 24 7 43 10 78 9 226 102 233 146 1 8 10 31 21 50 19 37 33
84 40 135 20 157 21 190 11 255 -3 25 -6 48 -6 53 0 4 -7 21 -15 37 -8 16 -15
32 -14 35 3 12 -24 65 -33 65 -5 0 -7 4 -4 9 3 5 -5 20 -18 34 -13 14 -22 28
-20 30 8 8 -138 137 -155 137 -9 0 -22 5 -29 12 -7 7 -12 8 -12 4 0 -5 -7 -3
-15 4 -9 7 -18 10 -22 7 -3 -4 -12 -2 -20 4 -7 6 -13 8 -13 5 0 -4 -9 -2 -20
4 -10 6 -32 12 -47 15 -15 2 -62 11 -103 20 -82 17 -140 26 -182 28 -16 1 -28
4 -28 7 0 4 -10 6 -22 6 -27 1 -125 13 -159 19 -13 3 -46 7 -74 10 -27 3 -61
7 -75 10 -14 3 -45 7 -70 11 -73 9 -85 11 -85 13 0 1 -16 4 -35 6 -36 5 -75
12 -75 15 0 1 -12 3 -26 5 -14 2 -43 8 -65 14 -39 10 -63 15 -119 26 -16 3
-41 8 -55 11 -36 8 -53 12 -96 18 -22 4 -46 8 -54 11 -8 2 -33 7 -55 10 -22 4
-49 9 -60 11 -11 2 -31 5 -45 7 -14 3 -54 10 -90 17 -36 7 -74 14 -86 15 -11
2 -47 8 -80 15 -32 7 -66 14 -74 15 -8 2 -15 4 -15 5 0 1 -12 3 -26 5 -14 2
-45 9 -70 15 -24 7 -54 14 -67 16 -13 3 -42 11 -65 18 -23 7 -76 23 -117 36
-41 12 -84 26 -95 31 -11 5 -29 11 -40 12 -11 2 -27 7 -35 10 -8 3 -55 20
-105 38 -49 18 -94 36 -99 41 -6 4 -16 8 -24 8 -16 0 -213 95 -282 136 -286
169 -541 393 -696 609 -58 81 -198 264 -257 335 -7 8 -45 65 -85 125 -39 61
-77 115 -82 122 -6 7 -10 14 -10 17 0 3 -24 43 -54 88 -29 46 -62 99 -73 118
-26 50 -56 94 -68 102 -5 4 -7 8 -3 8 5 0 -13 33 -39 73 -25 39 -54 86 -63
102 -10 17 -40 67 -68 113 -28 45 -52 86 -53 90 -1 4 -7 16 -14 27 -27 44
-128 219 -157 273 -17 31 -39 68 -50 81 -10 13 -18 28 -18 33 0 5 -15 33 -34
62 -19 30 -50 82 -69 117 -69 127 -102 186 -172 309 -39 69 -87 152 -105 185
-18 33 -45 80 -59 105 -14 25 -33 57 -41 71 -8 14 -41 73 -74 130 -32 57 -92
161 -132 231 -41 70 -74 129 -74 131 0 2 -48 87 -106 188 -58 101 -190 330
-292 509 -102 179 -193 339 -202 355 -10 17 -34 59 -54 95 -20 36 -40 72 -46
80 -5 8 -21 35 -35 60 -14 25 -38 66 -53 92 -32 55 -321 557 -351 611 -41 72
-59 103 -118 202 -33 55 -63 107 -66 115 -4 8 -15 29 -25 45 -10 17 -34 57
-52 90 -18 33 -44 77 -57 98 l-23 37 -240 0 c-132 0 -240 -3 -240 -8z"/>
</g>
</svg>
